<?xml version="1.0" encoding="utf-8"?>
<!-- Generator: Adobe Illustrator 26.0.3, SVG Export Plug-In . SVG Version: 6.00 Build 0)  -->
<svg version="1.1" id="Layer_1" xmlns="http://www.w3.org/2000/svg" xmlns:xlink="http://www.w3.org/1999/xlink" x="0px" y="0px"
     viewBox="0 0 876.59 243" style="enable-background:new 0 0 876.59 243;" xml:space="preserve">
<style type="text/css">
	.st0{fill:#FF5100;}
	.st1{fill:#31006F;}
</style>
    <g>
	<path class="st0" d="M871.48,208.76c0-13.03-9.07-22.33-21.87-22.33c-11.88-0.2-21.68,9.27-21.88,21.16
		c-0.01,0.39,0,0.78,0.01,1.17c0,13.03,9.08,22.33,21.87,22.33c11.81,0.28,21.61-9.06,21.89-20.87
		C871.51,209.73,871.5,209.25,871.48,208.76 M844.02,209.92v15.07h-4.53v-32.55h10.42c6.98,0,10.75,2.78,10.75,8.59
		c0.19,3.33-2.01,6.32-5.25,7.13v0.02c2.79,0.46,3.73,2.9,4.42,7.32c0.47,2.79,0.93,7.91,2.1,9.07h-5.59
		c-1.39-3.02-1.17-7.21-2.1-10.94c-0.5-2.47-2.85-4.11-5.35-3.72H844.02z M849.84,205.74c4.65,0,6-2.3,6-4.63
		c0-2.56-1.58-4.67-6-4.67h-5.82v9.18L849.84,205.74z M822.62,208.76c-0.13-14.9,11.85-27.09,26.75-27.22
		c14.9-0.13,27.09,11.85,27.22,26.75c0.13,14.9-11.85,27.08-26.75,27.21h-0.23c-14.54,0.35-26.63-11.15-26.98-25.69
		C822.62,209.47,822.62,209.12,822.62,208.76"/>
        <polygon class="st0" points="725.77,235.68 692.08,197.81 659.86,235.7 592.92,235.71 658.51,159.86 592.92,85.05 663.39,85.05
		695,121.43 726.57,85.05 792.18,85.05 728.08,159.38 796.32,235.68 	"/>
        <polygon class="st0" points="461.7,235.71 461.7,0 592.92,0 592.92,53.46 517.59,53.46 517.59,85.05 592.92,85.05 592.92,136.08
		517.59,136.08 517.59,182.25 592.92,182.25 592.92,235.71 	"/>
        <path class="st1" d="M408.24,0v97.2l-1.98-1.55C394.1,81.8,377.4,77.76,359.64,77.76c-36.24,0-61.86,23.48-71.35,56.08
		c-10.94-35.76-40.14-56.08-81.74-56.08c-33.81,0-61.46,14.07-75.33,38.88V85.05H63.18V53.46h75.33V0H0v235.71h63.18v-99.63
		l62.14-0.54c-1.97,7.55-2.95,15.31-2.92,23.11c0,48.89,37.22,83.92,84.89,83.92c40.14,0,65.34-18.73,79.46-53.03h-53.48
		c-7.29,10.21-11.4,12.65-25.76,12.65c-16.78,0-31.86-15.08-31.86-32.59h109.46c4.62,38.92,35.02,73.41,76.61,73.41
		c18.58-0.45,35.85-9.7,46.51-24.93v17.64h53.46V0H408.24z M178.1,136.27c3.4-14.84,15.08-24.57,29.43-24.57
		c15.81,0,26.75,9.48,29.68,24.57H178.1z M373.43,198.54c-20.19,0-32.84-18.97-32.84-38.68c0-21.16,10.94-41.35,32.84-41.35
		c22.62,0,31.86,20.19,31.86,41.35C405.29,180.06,395.56,198.54,373.43,198.54"/>
</g>
</svg>
